<svg id="Layer_1" data-name="Layer 1" xmlns="http://www.w3.org/2000/svg" viewBox="0 0 1024 1024"><defs><style>.cls-1{fill:#35c3e4;}.cls-2{fill:#30afcd;}.cls-3{fill:#249ab5;}.cls-4{fill:#fcfdfd;}</style></defs><title>icon</title><path class="cls-1" d="M928.91,226.19c45.88-1.81,71.46,22.55,71.49,68.74q0.16,306.32.19,612.64c0,12.42-2.69,24-6.84,35.44-5.86,20.53-26.45,37-48.26,38.44-4,.27-8.11.09-12.17,0.09q-421.67,0-843.35,0c-34.39,0-52.94-13.44-63.06-45.46-1.89-8.45-3.5-16.85-3.49-25.65q0.21-309.79.21-619.58c0-40.43,25.43-65.21,64.91-64.53,10.09-6.73,21.41-7.78,33.17-7.78q388,0,776,.11C908.67,218.65,920,217.71,928.91,226.19Z"/><path class="cls-2" d="M928.91,226.19c-17.36.18-34.72,0.51-52.08,0.51q-380.27.05-760.53,0c-9.26,0-18.51-.25-27.77-0.39,7.07-14.77,2.24-30.44,3.23-45.66,2.24-34.41,24.51-57,59.3-58.75,39.66-10.11,80.13-7.66,120.42-7.68q239.94-.1,479.88,0c39.56,0,79.32-2.76,118.2,7.71,34.27,2.62,56.81,26.69,57.76,61.13C927.72,197.44,925.48,211.92,928.91,226.19Z"/><path class="cls-3" d="M869.56,121.94c-16.14.12-32.29,0.34-48.43,0.35q-328.11.28-656.23,0.48c-4.61,0-9.23-.56-13.84-0.85,16.72,0.11,23-6.67,24.49-24.82,2.68-32.78,28.26-54.38,61.21-54.44q273.53-.5,547.05,0c33,0.06,58.89,22.09,61,54.56C846,115.79,853.06,121.91,869.56,121.94Z"/><path class="cls-4" d="M166.38,498.19c0-38.8.41-77.6-.24-116.38-0.2-12.15,2.15-17.47,16-17.36,79.33,0.61,158.66.47,238,.11,11.09-.05,14.91,3.23,15.21,14.71,1.35,51.5,1.7,51.5-49.54,51.5-44,0-88,.72-132-0.37-16.33-.41-21.92,3.48-21.55,20.82,1.15,55,0,110,.72,165,0.18,13.7-3.8,18.84-17.55,17.29-15.37-1.73-35.22,6.4-45.2-3.33S167.26,600.49,167,585c-0.57-28.94-.16-57.9-0.16-86.86h-0.41Z"/><path class="cls-4" d="M871.73,715.27c0,39.41-.33,78.83.21,118.24,0.15,11.26-1.86,16.49-14.94,16.38q-120-1-240-.39c-11,0-14.13-3.92-13.58-14.15a285.22,285.22,0,0,0-.05-36.49c-0.93-12.28,3.66-15.71,15.73-15.58,56.22,0.57,112.45-.21,168.66.58,14.12,0.2,18.78-3.09,18.54-18-0.91-56.21,0-112.44-.66-168.66-0.16-12.91,3.25-18.07,16.43-16.43,15.88,2,36.39-7,46.66,3.88,9.35,9.88,2.53,29.87,2.76,45.39,0.42,28.39.12,56.8,0.12,85.2h0.07Z"/></svg>